<svg width="72" height="24" viewBox="0 0 72 24" fill="none" xmlns="http://www.w3.org/2000/svg">
    <rect x="1" y="1" width="70" height="22" rx="3" stroke="white" stroke-width="2"/>
    <path d="M9 16.7073L10.9625 5H14.1487L13.4099 9.45884H13.456C13.6177 9.16158 13.8312 8.8891 14.0967 8.64139C14.3622 8.38986 14.6739 8.18979 15.0318 8.04116C15.3897 7.88872 15.7879 7.8125 16.2266 7.8125C16.8115 7.8125 17.3406 7.96684 17.8139 8.27553C18.2911 8.58422 18.6393 9.07012 18.8587 9.73323C19.0819 10.3963 19.105 11.2576 18.928 12.3171C18.7586 13.3308 18.4585 14.1711 18.0275 14.838C17.5965 15.505 17.0886 16.0023 16.5037 16.33C15.9188 16.6578 15.3108 16.8216 14.6797 16.8216C14.2641 16.8216 13.9043 16.755 13.6003 16.6216C13.3002 16.4844 13.0558 16.2995 12.8673 16.0671C12.6826 15.8308 12.5556 15.564 12.4863 15.2668H12.394L12.1631 16.7073H9ZM12.8557 12.3171C12.7865 12.7439 12.7826 13.1136 12.8442 13.4261C12.9058 13.7348 13.027 13.9748 13.2078 14.1463C13.3887 14.314 13.6253 14.3979 13.9178 14.3979C14.2102 14.3979 14.4738 14.3159 14.7086 14.1521C14.9433 13.9844 15.1415 13.7462 15.3031 13.4375C15.4647 13.125 15.5802 12.7515 15.6494 12.3171C15.7187 11.8826 15.7245 11.5111 15.6667 11.2024C15.609 10.8899 15.4916 10.6517 15.3146 10.4878C15.1376 10.3201 14.9029 10.2363 14.6104 10.2363C14.318 10.2363 14.0525 10.3201 13.8139 10.4878C13.5753 10.6517 13.3733 10.8899 13.2078 11.2024C13.0424 11.5111 12.925 11.8826 12.8557 12.3171Z" fill="white"/>
    <path d="M23.7476 16.8674C22.801 16.8674 22.016 16.6883 21.3926 16.33C20.7692 15.968 20.3306 15.4497 20.0766 14.7752C19.8226 14.0968 19.7764 13.2851 19.9381 12.3399C20.092 11.4329 20.4094 10.6402 20.8905 9.96189C21.3753 9.28354 21.9852 8.75572 22.7202 8.37843C23.459 8.00114 24.2864 7.8125 25.2022 7.8125C25.8717 7.8125 26.4586 7.9154 26.9627 8.12119C27.4706 8.32698 27.8843 8.62614 28.2037 9.01867C28.523 9.4112 28.7385 9.88567 28.8501 10.4421C28.9656 10.9947 28.9656 11.6197 28.8501 12.3171L28.7347 13.0488H20.8154L21.0925 11.311H26.0795C26.118 11.0595 26.093 10.8384 26.0045 10.6479C25.9198 10.4535 25.7832 10.303 25.5947 10.1963C25.41 10.0857 25.1868 10.0305 24.9251 10.0305C24.6635 10.0305 24.4172 10.0857 24.1863 10.1963C23.9593 10.3068 23.7649 10.4611 23.6033 10.6593C23.4456 10.8575 23.3397 11.0899 23.2859 11.3567L22.9395 13.186C22.8934 13.468 22.9107 13.7195 22.9915 13.9405C23.0723 14.1616 23.2127 14.335 23.4128 14.4607C23.6129 14.5865 23.8708 14.6494 24.1863 14.6494C24.4018 14.6494 24.6057 14.6208 24.7981 14.5636C24.9944 14.5027 25.1676 14.415 25.3176 14.3007C25.4715 14.1825 25.5947 14.0396 25.687 13.872H28.5962C28.3884 14.4817 28.0594 15.0114 27.6091 15.4611C27.1628 15.907 26.6125 16.2538 25.9583 16.5015C25.308 16.7454 24.5711 16.8674 23.7476 16.8674Z" fill="white"/>
    <path d="M33.6366 16.8674C32.69 16.8674 31.905 16.6883 31.2816 16.33C30.6582 15.968 30.2196 15.4497 29.9656 14.7752C29.7116 14.0968 29.6654 13.2851 29.827 12.3399C29.981 11.4329 30.2984 10.6402 30.7794 9.96189C31.2643 9.28354 31.8742 8.75572 32.6092 8.37843C33.348 8.00114 34.1753 7.8125 35.0912 7.8125C35.7607 7.8125 36.3476 7.9154 36.8517 8.12119C37.3596 8.32698 37.7733 8.62614 38.0926 9.01867C38.412 9.4112 38.6275 9.88567 38.7391 10.4421C38.8546 10.9947 38.8546 11.6197 38.7391 12.3171L38.6237 13.0488H30.7044L30.9815 11.311H35.9685C36.007 11.0595 35.982 10.8384 35.8935 10.6479C35.8088 10.4535 35.6722 10.303 35.4837 10.1963C35.299 10.0857 35.0758 10.0305 34.8141 10.0305C34.5524 10.0305 34.3062 10.0857 34.0753 10.1963C33.8483 10.3068 33.6539 10.4611 33.4923 10.6593C33.3345 10.8575 33.2287 11.0899 33.1748 11.3567L32.8285 13.186C32.7823 13.468 32.7997 13.7195 32.8805 13.9405C32.9613 14.1616 33.1017 14.335 33.3018 14.4607C33.5019 14.5865 33.7598 14.6494 34.0753 14.6494C34.2908 14.6494 34.4947 14.6208 34.6871 14.5636C34.8834 14.5027 35.0565 14.415 35.2066 14.3007C35.3605 14.1825 35.4837 14.0396 35.576 13.872H38.4851C38.2774 14.4817 37.9483 15.0114 37.4981 15.4611C37.0518 15.907 36.5015 16.2538 35.8473 16.5015C35.197 16.7454 34.4601 16.8674 33.6366 16.8674Z" fill="white"/>
    <path d="M38.7694 20L40.8127 7.92683H43.9758L43.7219 9.45884H43.7911C43.9527 9.16158 44.1644 8.8891 44.426 8.64139C44.6916 8.38986 45.0033 8.18979 45.3611 8.04116C45.7228 7.88872 46.123 7.8125 46.5617 7.8125C47.1466 7.8125 47.6757 7.96684 48.149 8.27553C48.6223 8.58422 48.9706 9.07012 49.1938 9.73323C49.417 10.3963 49.44 11.2576 49.263 12.3171C49.0937 13.3308 48.7916 14.1711 48.3568 14.838C47.9258 15.505 47.4179 16.0023 46.833 16.33C46.2519 16.6578 45.6459 16.8216 45.0148 16.8216C44.5992 16.8216 44.2394 16.755 43.9354 16.6216C43.6314 16.4844 43.3871 16.2995 43.2024 16.0671C43.0177 15.8308 42.8907 15.564 42.8214 15.2668H42.7521L41.9671 20H38.7694ZM43.1908 12.3171C43.1216 12.7439 43.1158 13.1136 43.1735 13.4261C43.2351 13.7348 43.3563 13.9748 43.5371 14.1463C43.7219 14.314 43.9604 14.3979 44.2529 14.3979C44.5453 14.3979 44.807 14.3159 45.0379 14.1521C45.2688 13.9844 45.465 13.7462 45.6266 13.4375C45.7883 13.125 45.9075 12.7515 45.9845 12.3171C46.0538 11.8826 46.0595 11.5111 46.0018 11.2024C45.9441 10.8899 45.8267 10.6517 45.6497 10.4878C45.4727 10.3201 45.238 10.2363 44.9455 10.2363C44.6531 10.2363 44.3856 10.3201 44.1432 10.4878C43.9046 10.6517 43.7026 10.8899 43.5371 11.2024C43.3755 11.5111 43.2601 11.8826 43.1908 12.3171Z" fill="white"/>
    <path d="M58.9298 10.7851H56.0669C56.0822 10.6021 56.0495 10.4459 55.9687 10.3163C55.8879 10.1867 55.7744 10.0877 55.6282 10.0191C55.4858 9.95046 55.3242 9.91616 55.1433 9.91616C54.8278 9.91616 54.5411 9.98666 54.2833 10.1277C54.0255 10.2649 53.8812 10.4459 53.8504 10.6707C53.8311 10.7584 53.86 10.8403 53.937 10.9165C54.0139 10.9928 54.216 11.0633 54.543 11.128L56.2977 11.4482C57.1751 11.6082 57.8139 11.8998 58.2141 12.3228C58.6181 12.742 58.7643 13.2965 58.6527 13.9863C58.5488 14.5846 58.2833 15.0991 57.8562 15.5297C57.4291 15.9604 56.8865 16.2919 56.2285 16.5244C55.5743 16.753 54.8509 16.8674 54.0582 16.8674C52.6613 16.8674 51.6147 16.5911 50.9182 16.0385C50.2255 15.4859 49.91 14.7637 49.9716 13.872H53.0654C53.0731 14.1578 53.1693 14.3731 53.354 14.5179C53.5425 14.6589 53.7927 14.7332 54.1044 14.7409C54.443 14.7523 54.7393 14.6856 54.9933 14.5408C55.2472 14.3921 55.3896 14.2073 55.4204 13.9863C55.4319 13.8605 55.3761 13.7652 55.253 13.7005C55.1337 13.6357 54.9047 13.5709 54.5661 13.5061L53.0423 13.2317C52.1649 13.0755 51.5262 12.763 51.126 12.2942C50.7258 11.8216 50.5872 11.2195 50.7104 10.4878C50.8104 9.90473 51.049 9.41501 51.4261 9.01867C51.8071 8.62233 52.3073 8.32317 52.9268 8.12119C53.5464 7.9154 54.2621 7.8125 55.0741 7.8125C56.4016 7.8125 57.406 8.07736 58.0871 8.60709C58.772 9.133 59.0529 9.85899 58.9298 10.7851Z" fill="white"/>
    <path d="M61.2127 16.8902C60.7624 16.8902 60.3949 16.7359 60.1102 16.4272C59.8293 16.1147 59.7119 15.7355 59.7581 15.2896C59.8043 14.8552 60.0024 14.4836 60.3526 14.1749C60.7066 13.8662 61.1088 13.7119 61.559 13.7119C61.9861 13.7119 62.3421 13.8662 62.6268 14.1749C62.9154 14.4836 63.0366 14.8552 62.9904 15.2896C62.9597 15.5869 62.8538 15.8575 62.673 16.1014C62.496 16.3415 62.2766 16.5339 62.015 16.6787C61.7571 16.8197 61.4897 16.8902 61.2127 16.8902Z" fill="white"/>
    <circle cx="61.5" cy="15.5" r="2" fill="#44EEDA" stroke="black"/>
</svg>
